<svg xmlns="http://www.w3.org/2000/svg" width="43.671" height="43.671" viewBox="0 0 43.671 43.671">
  <path id="big-data-analytics" d="M8.188,29.114a.91.91,0,0,1,.91.91v5.459a.91.91,0,0,1-1.82,0V30.024A.91.91,0,0,1,8.188,29.114Zm4.549-8.188V35.483a.91.91,0,0,0,1.82,0V20.926a.91.91,0,1,0-1.82,0ZM18.2,24.565V35.483a.91.91,0,0,0,1.82,0V24.565a.91.91,0,1,0-1.82,0ZM43.671,26.84v13.8c0,2.094-3.656,3.033-7.279,3.033s-7.279-.937-7.279-3.033V26.84c0-2.275,3.792-3.135,7.279-3.184C39.881,23.7,43.671,24.565,43.671,26.84Zm-1.816,6.793a14.1,14.1,0,0,1-5.463.941,14.08,14.08,0,0,1-5.459-.939v2.416c.213.373,2.08,1.252,5.459,1.252,3.423,0,5.292-.9,5.464-1.265V33.632Zm-.005-4.618a13.481,13.481,0,0,1-5.461,1.01,13.5,13.5,0,0,1-5.459-1.008V31.5c.213.373,2.08,1.252,5.459,1.252,3.414,0,5.281-.9,5.463-1.263V29.014ZM30.932,26.84c.16.391,2.007,1.365,5.455,1.365,3.5,0,5.346-1,5.461-1.381-.113-.348-1.963-1.348-5.461-1.348C32.937,25.475,31.092,26.448,30.932,26.84ZM41.855,40.583v-2.4a14.085,14.085,0,0,1-5.468.943,14.068,14.068,0,0,1-5.459-.939v2.455c.156.3,2.027,1.214,5.459,1.214s5.3-.908,5.468-1.268ZM25.469,42.761a.91.91,0,0,1-.91.91H8.188A8.2,8.2,0,0,1,0,35.483V8.188A8.2,8.2,0,0,1,8.188,0H18.224a11.759,11.759,0,0,1,8.365,3.465l6.34,6.341a11.743,11.743,0,0,1,3.465,8.363v.937a.91.91,0,0,1-1.82,0v-.937a10.091,10.091,0,0,0-.175-1.792H24.565a4.554,4.554,0,0,1-4.549-4.549V1.994a10.124,10.124,0,0,0-1.792-.175H8.188A6.376,6.376,0,0,0,1.82,8.188V35.483a6.376,6.376,0,0,0,6.369,6.369H24.565a.91.91,0,0,1,.91.91Zm-.175-38.01a9.958,9.958,0,0,0-3.465-2.24v9.317a2.733,2.733,0,0,0,2.729,2.729h9.318a9.972,9.972,0,0,0-2.242-3.465L25.3,4.751Z" fill="#fff"/>
</svg>
