<svg xmlns="http://www.w3.org/2000/svg" width="44.088" height="40.412" viewBox="0 0 44.088 40.412">
  <path id="car-alt" d="M33.066,26.717A1.837,1.837,0,1,1,34.9,28.554,1.838,1.838,0,0,1,33.066,26.717ZM9.185,24.88a1.837,1.837,0,1,0,1.837,1.837A1.838,1.838,0,0,0,9.185,24.88Zm34.9-11.022V27.636a6.441,6.441,0,0,1-3.674,5.809v3.376a4.592,4.592,0,0,1-9.185,0V34.065H12.859v2.755a4.592,4.592,0,0,1-9.185,0V33.444A6.441,6.441,0,0,1,0,27.636V13.858a1.839,1.839,0,0,1,1.837-1.837H3.81A52.586,52.586,0,0,1,7.7,5.419,8.4,8.4,0,0,1,12.639,2.05,41.163,41.163,0,0,1,22.042,1a41.255,41.255,0,0,1,9.4,1.049,8.4,8.4,0,0,1,4.942,3.369,52.274,52.274,0,0,1,3.887,6.6h1.973a1.839,1.839,0,0,1,1.837,1.837ZM40.282,12.03ZM3.8,12.03ZM1.953,21.046a164.047,164.047,0,0,1,20.089-1.677,164.047,164.047,0,0,1,20.089,1.677A63.41,63.41,0,0,0,34.885,6.473a6.585,6.585,0,0,0-3.863-2.638,39.39,39.39,0,0,0-8.981-1,39.39,39.39,0,0,0-8.981,1A6.585,6.585,0,0,0,9.2,6.473,63.41,63.41,0,0,0,1.949,21.046ZM11.02,34.065H6.429A6.3,6.3,0,0,1,5.511,34v2.822a2.755,2.755,0,0,0,5.511,0V34.065ZM38.575,34a6.571,6.571,0,0,1-.918.066H33.064v2.755a2.755,2.755,0,0,0,5.511,0Zm3.674-11.081a163.779,163.779,0,0,0-20.207-1.712A163.779,163.779,0,0,0,1.835,22.918v4.717a4.6,4.6,0,0,0,4.592,4.592H37.658a4.6,4.6,0,0,0,4.592-4.592V22.918Z" transform="translate(0 -1.001)" fill="#fff"/>
</svg>
