<svg xmlns="http://www.w3.org/2000/svg" width="347.746" height="39.377" viewBox="0 0 347.746 39.377">
  <g id="Group_12" data-name="Group 12" transform="translate(-2335.098 -400)">
    <text id="change_password" data-name="change password" transform="translate(2405.844 430)" fill="#1c4853" font-size="33" font-family="GraphikArabic-Regular, Graphik Arabic"><tspan x="0" y="0">Change Password</tspan></text>
    <path id="password-lock" d="M45,11.438V18a.938.938,0,1,1-1.875,0V11.438a6.57,6.57,0,0,0-6.562-6.563H8.438a6.57,6.57,0,0,0-6.563,6.563v7.5A6.57,6.57,0,0,0,8.438,25.5H21.562a.938.938,0,0,1,0,1.875H8.438A8.448,8.448,0,0,1,0,18.938v-7.5A8.448,8.448,0,0,1,8.438,3H36.563A8.448,8.448,0,0,1,45,11.438Zm-27.382,7.7a.938.938,0,0,0,1.326,0l2.617-2.618,2.617,2.618A.937.937,0,0,0,25.5,17.807l-2.618-2.617L25.5,12.572a.937.937,0,0,0-1.326-1.326l-2.617,2.617-2.617-2.617a.937.937,0,1,0-1.326,1.326l2.617,2.618-2.617,2.617A.938.938,0,0,0,17.618,19.133Zm-3.553-7.888a.938.938,0,0,0-1.326,0l-2.618,2.618L7.5,11.244A.937.937,0,0,0,6.178,12.57L8.8,15.188,6.178,17.805A.937.937,0,0,0,7.5,19.131l2.617-2.618,2.618,2.618a.937.937,0,0,0,1.326-1.326l-2.617-2.618,2.617-2.618a.938.938,0,0,0,0-1.326ZM45,32.064v3.75a6.57,6.57,0,0,1-6.563,6.562h-7.5a6.57,6.57,0,0,1-6.563-6.562v-3.75a6.554,6.554,0,0,1,3.75-5.9V22.689a6.562,6.562,0,1,1,13.125,0V26.16A6.554,6.554,0,0,1,45,32.064ZM30,25.6a6.456,6.456,0,0,1,.938-.1h7.5a6.456,6.456,0,0,1,.938.1V22.689a4.688,4.688,0,0,0-9.375,0Zm13.125,6.467a4.692,4.692,0,0,0-4.687-4.688h-7.5a4.692,4.692,0,0,0-4.688,4.688v3.75A4.692,4.692,0,0,0,30.938,40.5h7.5a4.692,4.692,0,0,0,4.688-4.687Zm-8.437,0a1.875,1.875,0,1,0,1.875,1.875A1.876,1.876,0,0,0,34.687,32.064Z" transform="translate(2335.098 397)" fill="#1c4853"/>
  </g>
</svg>
