<svg xmlns="http://www.w3.org/2000/svg" width="45.134" height="47.609" viewBox="0 0 45.134 47.609">
  <path id="customize" d="M44.915,1.435a4.958,4.958,0,0,0-7.008,0L34.751,4.6a.116.116,0,0,0-.022.014c-.006.006-.008.016-.014.022L23.209,16.164A8.979,8.979,0,0,0,20.6,22.472V24.8a.992.992,0,0,0,.991.991h2.323a8.979,8.979,0,0,0,6.308-2.613l14.7-14.731a4.958,4.958,0,0,0,0-7.01Zm-16.1,20.337A6.991,6.991,0,0,1,23.909,23.8H22.577V22.472a6.994,6.994,0,0,1,2.032-4.906L35.433,6.718l4.2,4.2L28.814,21.77Zm14.7-14.731L41.039,9.519l-4.2-4.2,2.474-2.478a2.974,2.974,0,0,1,4.2,4.207Zm.228,24.721A4.954,4.954,0,0,1,36.523,37.4l-1.489-.843a17.74,17.74,0,0,1-7.5,4.377v1.707a4.956,4.956,0,1,1-9.912,0V40.93a17.74,17.74,0,0,1-7.5-4.377L8.633,37.4A4.956,4.956,0,0,1,3.752,28.77l1.483-.839a17.434,17.434,0,0,1,0-8.255l-1.483-.839a4.956,4.956,0,1,1,4.883-8.625l1.489.843a17.74,17.74,0,0,1,7.5-4.377V4.971a4.956,4.956,0,0,1,9.912,0V6.954a.991.991,0,0,1-1.982,0V4.971a2.974,2.974,0,1,0-5.947,0v2.47a.992.992,0,0,1-.759.963,15.782,15.782,0,0,0-7.825,4.565,1,1,0,0,1-1.211.186L7.657,11.939a2.979,2.979,0,0,0-2.26-.282,2.975,2.975,0,0,0-.67,5.456l2.145,1.213a.989.989,0,0,1,.464,1.134,15.546,15.546,0,0,0,0,8.683.991.991,0,0,1-.464,1.134L4.725,30.493a2.973,2.973,0,1,0,2.93,5.174L9.81,34.448a1,1,0,0,1,1.211.186A15.791,15.791,0,0,0,18.846,39.2a.994.994,0,0,1,.759.963v2.47a2.974,2.974,0,1,0,5.947,0v-2.47a.992.992,0,0,1,.759-.963,15.782,15.782,0,0,0,7.825-4.565.994.994,0,0,1,1.211-.186L37.5,35.665a2.973,2.973,0,1,0,2.932-5.172l-2.147-1.215a.989.989,0,0,1-.464-1.134A15.864,15.864,0,0,0,38.44,23.8a15.56,15.56,0,0,0-.256-2.793.99.99,0,0,1,1.947-.361A17.208,17.208,0,0,1,40.42,23.8a17.69,17.69,0,0,1-.5,4.127l1.483.839a4.925,4.925,0,0,1,2.335,2.991ZM15.2,20.9a8.507,8.507,0,0,0,.533,7.117,6.274,6.274,0,0,0,2.639,2.639,8.521,8.521,0,0,0,7.117.533,7.935,7.935,0,0,0,4.571-4.738.993.993,0,1,1,1.871.662,9.911,9.911,0,0,1-9.341,6.605,11.12,11.12,0,0,1-5.13-1.3,8.225,8.225,0,0,1-3.483-3.483,10.449,10.449,0,0,1-.619-8.756,9.913,9.913,0,0,1,5.917-5.715.993.993,0,0,1,.662,1.871A7.935,7.935,0,0,0,15.2,20.9Z" transform="translate(-1.234 0.016)" fill="#fff"/>
</svg>
