<svg xmlns="http://www.w3.org/2000/svg" width="46.269" height="42.413" viewBox="0 0 46.269 42.413">
  <path id="dashboard-monitor" d="M40.485,9.675a.964.964,0,0,1-.964.964H33.737a.964.964,0,0,1,0-1.928h5.784A.964.964,0,0,1,40.485,9.675Zm-.964,4.82H33.737a.964.964,0,1,0,0,1.928h5.784a.964.964,0,0,0,0-1.928Zm0,5.784H33.737a.964.964,0,0,0,0,1.928h5.784a.964.964,0,0,0,0-1.928Zm0,5.784H33.737a.964.964,0,0,0,0,1.928h5.784a.964.964,0,0,0,0-1.928Zm-10.6-7.711a11.532,11.532,0,0,1-3.374,8.157c-.006.006-.008.015-.015.021s-.015.008-.021.015a11.561,11.561,0,1,1,3.41-8.193ZM18.315,8.81v8.743a.986.986,0,0,0,.281.682l6.183,6.183A9.54,9.54,0,0,0,18.313,8.812Zm-.964,19.18a9.545,9.545,0,0,0,6.065-2.209L17.233,19.6a2.874,2.874,0,0,1-.846-2.045V8.81a9.613,9.613,0,0,0,.964,19.18ZM46.269,9.675V27.026A8.686,8.686,0,0,1,37.593,35.7H24.1v5.784h9.639a.964.964,0,0,1,0,1.928H12.531a.964.964,0,1,1,0-1.928H22.17V35.7H8.675A8.686,8.686,0,0,1,0,27.026V9.675A8.686,8.686,0,0,1,8.675,1H37.593A8.686,8.686,0,0,1,46.269,9.675Zm-1.928,0a6.755,6.755,0,0,0-6.748-6.747H8.675A6.755,6.755,0,0,0,1.928,9.675V27.026a6.755,6.755,0,0,0,6.747,6.747H37.593a6.755,6.755,0,0,0,6.748-6.747Z" transform="translate(0 -1)" fill="#fff"/>
</svg>
