<svg xmlns="http://www.w3.org/2000/svg" width="44.62" height="46.56" viewBox="0 0 44.62 46.56">
  <path id="features-alt" d="M9.5,34.38a1.837,1.837,0,0,0,3.135-1.3V25.107a6.79,6.79,0,1,0-9.7,0V33.08a1.836,1.836,0,0,0,3.17,1.263l1.678-1.857L9.5,34.38ZM2.941,20.369a4.85,4.85,0,1,1,4.85,4.85A4.856,4.856,0,0,1,2.941,20.369Zm1.94,12.443V26.478a6.558,6.558,0,0,0,5.82,0v6.334l-2.19-2.423a1,1,0,0,0-1.439,0l-2.19,2.423Zm11.64,5.017a.97.97,0,0,1,.97-.97h17.46a.97.97,0,1,1,0,1.94H17.491A.97.97,0,0,1,16.521,37.829Zm2.91-14.55a.97.97,0,1,1,0-1.94h15.52a.97.97,0,1,1,0,1.94Zm-1.94,5.82h17.46a.97.97,0,1,1,0,1.94H17.491a.97.97,0,0,1,0-1.94ZM41.927,10.454,35.166,3.695A12.52,12.52,0,0,0,26.25,0h-10.7a8.741,8.741,0,0,0-8.73,8.73.97.97,0,1,0,1.94,0,6.8,6.8,0,0,1,6.79-6.79h10.7a10.759,10.759,0,0,1,1.911.186V12.611a4.856,4.856,0,0,0,4.85,4.85H43.495a10.794,10.794,0,0,1,.186,1.911V37.831a6.8,6.8,0,0,1-6.79,6.79H15.551a6.786,6.786,0,0,1-6.577-5.092.971.971,0,0,0-1.88.485,8.727,8.727,0,0,0,8.455,6.548h21.34a8.741,8.741,0,0,0,8.73-8.73V19.372a12.537,12.537,0,0,0-3.694-8.918Zm-8.916,5.065a2.914,2.914,0,0,1-2.91-2.91V2.674a10.632,10.632,0,0,1,3.694,2.39l6.761,6.759a10.617,10.617,0,0,1,2.388,3.694H33.011Z" transform="translate(-0.999 -0.001)" fill="#fff"/>
</svg>
