<svg xmlns="http://www.w3.org/2000/svg" width="45" height="45.009" viewBox="0 0 45 45.009">
  <path id="house-blank" d="M36.564,45.005H8.438A8.448,8.448,0,0,1,0,36.567V17.931a8.421,8.421,0,0,1,3.718-6.992l14.063-9.49a8.393,8.393,0,0,1,9.439,0l14.061,9.49A8.424,8.424,0,0,1,45,17.931V36.567a8.448,8.448,0,0,1-8.438,8.438ZM22.5,1.871A6.535,6.535,0,0,0,18.831,3L4.766,12.489a6.552,6.552,0,0,0-2.891,5.44V36.565a6.57,6.57,0,0,0,6.563,6.563H36.564a6.57,6.57,0,0,0,6.563-6.563V17.931a6.552,6.552,0,0,0-2.891-5.44L26.172,3A6.56,6.56,0,0,0,22.5,1.871Z" transform="translate(0 0.004)" fill="#c5f1e6"/>
</svg>
