<svg id="Group_82" data-name="Group 82" xmlns="http://www.w3.org/2000/svg" xmlns:xlink="http://www.w3.org/1999/xlink" width="569.534" height="110.202" viewBox="0 0 569.534 110.202">
  <defs>
    <clipPath id="clip-path">
      <rect id="Rectangle_1074" data-name="Rectangle 1074" width="569.534" height="110.202" fill="none"/>
    </clipPath>
  </defs>
  <path id="Path_88" data-name="Path 88" d="M166.256,231.732l2.661,6.935H163.6Zm-.467-1.113-4.638,11.936h.955l1.164-3.035h5.975l1.165,3.035h.954l-4.621-11.936Z" transform="translate(-92.616 -132.54)" fill="#fff"/>
  <g id="Group_81" data-name="Group 81">
    <g id="Group_80" data-name="Group 80" clip-path="url(#clip-path)">
      <path id="Path_89" data-name="Path 89" d="M211.782,230.62a5.247,5.247,0,0,1,4.033,1.731,6.427,6.427,0,0,1,0,8.474,5.247,5.247,0,0,1-4.033,1.731H207.3V230.62Zm0,11.083a4.385,4.385,0,0,0,3.41-1.475,5.647,5.647,0,0,0,0-7.28,4.386,4.386,0,0,0-3.41-1.475H208.2V241.7Z" transform="translate(-119.137 -132.541)" fill="#fff"/>
      <path id="Path_90" data-name="Path 90" d="M254.768,242.555l-4.451-11.936h.989l3.938,10.758L259.2,230.62h.972l-4.45,11.936Z" transform="translate(-143.861 -132.541)" fill="#fff"/>
      <path id="Path_91" data-name="Path 91" d="M300.35,242.556l-1.164-3.035H293.21l-1.164,3.035h-.955l4.638-11.936h.955l4.621,11.936Zm-6.813-3.888h5.321l-2.661-6.935Z" transform="translate(-167.295 -132.541)" fill="#fff"/>
      <path id="Path_92" data-name="Path 92" d="M345.083,230.62h.9v11.936h-.8l-7.042-10.27v10.27h-.9V230.62h.751l7.092,10.312Z" transform="translate(-193.817 -132.541)" fill="#fff"/>
      <path id="Path_93" data-name="Path 93" d="M387.428,242.49a6.155,6.155,0,1,1,3-11.535,5.537,5.537,0,0,1,2.114,2.089l-.8.461a4.523,4.523,0,0,0-1.756-1.782,5,5,0,0,0-2.558-.674,5.1,5.1,0,0,0-3.811,1.526,5.482,5.482,0,0,0,0,7.519,5.1,5.1,0,0,0,3.811,1.526,5.039,5.039,0,0,0,2.575-.682,4.486,4.486,0,0,0,1.773-1.824l.8.46a5.457,5.457,0,0,1-2.114,2.123,5.99,5.99,0,0,1-3.035.793" transform="translate(-219.094 -132.288)" fill="#fff"/>
      <path id="Path_94" data-name="Path 94" d="M431.881,241.7h5.968v.853h-6.871V230.62h6.787v.852h-5.883v4.638h5.456v.852h-5.456Z" transform="translate(-247.69 -132.541)" fill="#fff"/>
      <path id="Path_95" data-name="Path 95" d="M474.873,230.62a5.248,5.248,0,0,1,4.033,1.731,6.428,6.428,0,0,1,0,8.474,5.249,5.249,0,0,1-4.033,1.731h-4.484V230.62Zm0,11.083a4.386,4.386,0,0,0,3.41-1.475,5.647,5.647,0,0,0,0-7.28,4.386,4.386,0,0,0-3.41-1.475h-3.581V241.7Z" transform="translate(-270.34 -132.541)" fill="#fff"/>
      <path id="Path_96" data-name="Path 96" d="M550.383,230.619a3.614,3.614,0,0,1,3.717,3.7,3.56,3.56,0,0,1-1.057,2.634,3.623,3.623,0,0,1-2.66,1.048h-3.154v4.553h-.9V230.619Zm0,6.531a2.721,2.721,0,0,0,2.021-.8,3.015,3.015,0,0,0,0-4.076,2.723,2.723,0,0,0-2.021-.8h-3.154v5.678Z" transform="translate(-313.982 -132.54)" fill="#fff"/>
      <path id="Path_97" data-name="Path 97" d="M595.438,242.556l-2.877-4.894H588.8v4.894h-.9V230.62h4.706A3.517,3.517,0,0,1,595.4,236.3a3.507,3.507,0,0,1-1.884,1.245l2.967,5.013ZM588.8,231.472v5.337h3.8a2.516,2.516,0,0,0,1.859-.776,2.58,2.58,0,0,0,.768-1.884,2.609,2.609,0,0,0-.768-1.893,2.505,2.505,0,0,0-1.859-.784Z" transform="translate(-337.876 -132.541)" fill="#fff"/>
      <path id="Path_98" data-name="Path 98" d="M631.424,241.7h5.968v.853h-6.871V230.62h6.787v.852h-5.883v4.638h5.456v.852h-5.456Z" transform="translate(-362.37 -132.541)" fill="#fff"/>
      <path id="Path_99" data-name="Path 99" d="M674.335,242.49a6.155,6.155,0,1,1,3-11.535,5.537,5.537,0,0,1,2.114,2.089l-.8.461a4.523,4.523,0,0,0-1.756-1.782,5,5,0,0,0-2.558-.674,5.1,5.1,0,0,0-3.811,1.526,5.482,5.482,0,0,0,0,7.519,5.1,5.1,0,0,0,3.811,1.526,5.039,5.039,0,0,0,2.575-.682,4.486,4.486,0,0,0,1.773-1.824l.8.46a5.457,5.457,0,0,1-2.114,2.123,5.99,5.99,0,0,1-3.035.793" transform="translate(-383.984 -132.288)" fill="#fff"/>
      <path id="Path_100" data-name="Path 100" d="M725.028,241.6a4.984,4.984,0,0,1-6.352,0,4.005,4.005,0,0,1-1.193-3.035V230.62h.9v7.945a3.25,3.25,0,0,0,.9,2.4,4.083,4.083,0,0,0,5.124,0,3.233,3.233,0,0,0,.912-2.4V230.62h.9v7.945a3.99,3.99,0,0,1-1.2,3.035" transform="translate(-412.349 -132.541)" fill="#fff"/>
      <path id="Path_101" data-name="Path 101" d="M768.525,230.62v.852h-3.751v11.083h-.921V231.472H760.1v-.852Z" transform="translate(-436.843 -132.541)" fill="#fff"/>
      <path id="Path_102" data-name="Path 102" d="M833.788,242.49a4.983,4.983,0,0,1-2.805-.759,3.746,3.746,0,0,1-1.56-2.054l.784-.461a3.182,3.182,0,0,0,1.236,1.756,3.951,3.951,0,0,0,2.345.648,3.322,3.322,0,0,0,2.225-.665,2.165,2.165,0,0,0,.776-1.723,1.745,1.745,0,0,0-.751-1.518,9.049,9.049,0,0,0-2.335-1.041l-.841-.307-.761-.277a3.92,3.92,0,0,1-.735-.335q-.239-.153-.571-.409a1.872,1.872,0,0,1-.486-.52,3.268,3.268,0,0,1-.273-.631,2.6,2.6,0,0,1-.12-.81,2.906,2.906,0,0,1,1.032-2.328,3.847,3.847,0,0,1,2.583-.878,4.033,4.033,0,0,1,2.388.7,4.1,4.1,0,0,1,1.449,1.807l-.768.426a3.075,3.075,0,0,0-3.069-2.063,2.856,2.856,0,0,0-1.961.648,2.108,2.108,0,0,0-.734,1.654,1.648,1.648,0,0,0,.683,1.449,9.092,9.092,0,0,0,2.234.989l1.537.574a6.741,6.741,0,0,1,1.2.611,2.519,2.519,0,0,1,.929.955,2.743,2.743,0,0,1,.29,1.288,2.94,2.94,0,0,1-1.074,2.379,4.3,4.3,0,0,1-2.847.9" transform="translate(-476.683 -132.288)" fill="#fff"/>
      <path id="Path_103" data-name="Path 103" d="M880.878,240.691a6.2,6.2,0,1,1,1.79-4.357,5.923,5.923,0,0,1-1.79,4.357m-8.091-.614a5.27,5.27,0,0,0,7.451,0,5.353,5.353,0,0,0,0-7.485,5.27,5.27,0,0,0-7.451,0,5.353,5.353,0,0,0,0,7.485" transform="translate(-500.209 -132.288)" fill="#fff"/>
      <path id="Path_104" data-name="Path 104" d="M923.624,241.7h5.627v.853H922.72V230.62h.9Z" transform="translate(-530.302 -132.541)" fill="#fff"/>
      <path id="Path_105" data-name="Path 105" d="M967.271,241.6a4.984,4.984,0,0,1-6.352,0,4.005,4.005,0,0,1-1.193-3.035V230.62h.9v7.945a3.249,3.249,0,0,0,.9,2.4,4.083,4.083,0,0,0,5.124,0,3.233,3.233,0,0,0,.912-2.4V230.62h.9v7.945a3.99,3.99,0,0,1-1.2,3.035" transform="translate(-551.57 -132.541)" fill="#fff"/>
      <path id="Path_106" data-name="Path 106" d="M1010.768,230.62v.852h-3.751v11.083h-.921V231.472h-3.751v-.852Z" transform="translate(-576.063 -132.541)" fill="#fff"/>
      <rect id="Rectangle_1069" data-name="Rectangle 1069" width="0.904" height="11.936" transform="translate(444.253 98.079)" fill="#fff"/>
      <path id="Path_107" data-name="Path 107" d="M1080.664,240.691a6.2,6.2,0,1,1,1.79-4.357,5.925,5.925,0,0,1-1.79,4.357m-8.091-.614a5.27,5.27,0,0,0,7.451,0,5.353,5.353,0,0,0,0-7.485,5.27,5.27,0,0,0-7.451,0,5.353,5.353,0,0,0,0,7.485" transform="translate(-615.028 -132.288)" fill="#fff"/>
      <path id="Path_108" data-name="Path 108" d="M1130.347,230.62h.9v11.936h-.8l-7.042-10.27v10.27h-.9V230.62h.751l7.092,10.312Z" transform="translate(-645.121 -132.541)" fill="#fff"/>
      <path id="Path_109" data-name="Path 109" d="M1170.371,242.49a4.983,4.983,0,0,1-2.805-.759,3.746,3.746,0,0,1-1.56-2.054l.784-.461a3.182,3.182,0,0,0,1.236,1.756,3.952,3.952,0,0,0,2.345.648,3.322,3.322,0,0,0,2.225-.665,2.165,2.165,0,0,0,.776-1.723,1.745,1.745,0,0,0-.751-1.518,9.048,9.048,0,0,0-2.335-1.041l-.841-.307-.761-.277a3.922,3.922,0,0,1-.735-.335q-.239-.153-.571-.409a1.871,1.871,0,0,1-.486-.52,3.271,3.271,0,0,1-.273-.631,2.606,2.606,0,0,1-.119-.81,2.906,2.906,0,0,1,1.032-2.328,3.847,3.847,0,0,1,2.583-.878,4.033,4.033,0,0,1,2.388.7,4.1,4.1,0,0,1,1.449,1.807l-.768.426a3.075,3.075,0,0,0-3.069-2.063,2.856,2.856,0,0,0-1.961.648,2.108,2.108,0,0,0-.734,1.654,1.648,1.648,0,0,0,.683,1.449,9.093,9.093,0,0,0,2.234.989l1.537.574a6.739,6.739,0,0,1,1.2.611,2.519,2.519,0,0,1,.929.955,2.743,2.743,0,0,1,.29,1.288,2.94,2.94,0,0,1-1.074,2.379,4.3,4.3,0,0,1-2.847.9" transform="translate(-670.122 -132.288)" fill="#fff"/>
      <path id="Path_110" data-name="Path 110" d="M1254.952,62.908h-8.071a.382.382,0,0,0-.308.612,21.718,21.718,0,0,1,3.808,12.752,21.894,21.894,0,0,1-6.522,16.063,22.779,22.779,0,0,1-32.019,0,21.893,21.893,0,0,1-6.521-16.063,21.714,21.714,0,0,1,3.808-12.752.383.383,0,0,0-.308-.612h-8.071a29.647,29.647,0,0,0-2.967,13.364,28.764,28.764,0,0,0,8.74,21.328,30.664,30.664,0,0,0,42.657,0,28.766,28.766,0,0,0,8.74-21.328,29.653,29.653,0,0,0-2.967-13.364" transform="translate(-688.385 -36.154)" fill="#fff"/>
      <path id="Path_111" data-name="Path 111" d="M1222.187,35.549a22.93,22.93,0,0,1,26.86,0,1.857,1.857,0,0,0,1.118.386h9.774a29.815,29.815,0,0,0-2.993-3.421,30.664,30.664,0,0,0-42.657,0,29.765,29.765,0,0,0-2.993,3.421h9.774a1.853,1.853,0,0,0,1.117-.386" transform="translate(-696.151 -13.725)" fill="#fff"/>
      <path id="Path_112" data-name="Path 112" d="M887.4,76.353a21.979,21.979,0,0,1-6.548,16.09,22.746,22.746,0,0,1-32.046,0,21.956,21.956,0,0,1-6.521-16.09,21.881,21.881,0,0,1,4.276-13.444h-8.82a29.489,29.489,0,0,0-3.02,13.444,29.09,29.09,0,0,0,8.633,21.3,28.441,28.441,0,0,0,20.9,8.713q15.235,0,23.146-12.588v11.2h7.564V62.909H883.1a21.9,21.9,0,0,1,4.3,13.444" transform="translate(-479.728 -36.155)" fill="#fff"/>
      <path id="Path_113" data-name="Path 113" d="M872.645,31.329a21.547,21.547,0,0,1,13.871,4.677H894.8q-7.858-11.987-22.745-12a28.416,28.416,0,0,0-20.9,8.686,32.971,32.971,0,0,0-2.86,3.314h10.45a21.569,21.569,0,0,1,13.9-4.677" transform="translate(-487.53 -13.797)" fill="#fff"/>
      <path id="Path_114" data-name="Path 114" d="M1150.96,99.5a6.748,6.748,0,0,1-5.212-1.951c-1.176-1.256-1.737-3.368-1.737-6.334v-28.3h-7.19v28.3q0,9.422,5.72,12.8,5.693,3.368,17.106,1.63V99.337c-3.475.16-6.388.213-8.686.16" transform="translate(-653.349 -36.154)" fill="#fff"/>
      <path id="Path_115" data-name="Path 115" d="M1113.816,0l-7.19,2.165V15.155h-22.344V22.21h45.17V15.155h-15.636Z" transform="translate(-623.155 0)" fill="#fff"/>
      <rect id="Rectangle_1070" data-name="Rectangle 1070" width="7.986" height="7.055" transform="translate(407.281 15.155)" fill="#fff"/>
      <path id="Path_116" data-name="Path 116" d="M1026.493,76.967q0,11.145-5.292,16.491T1007.463,98.8c-5.078,0-9.034-1.443-11.813-4.357q-4.169-4.33-4.169-12.214V62.908h-7.751V82.232q0,11.065,6.174,17.56,6.174,6.535,16.865,6.521c8.766,0,15.341-3.5,19.725-10.557v9.167h7.751V62.908h-7.751Z" transform="translate(-565.365 -36.154)" fill="#fff"/>
      <rect id="Rectangle_1071" data-name="Rectangle 1071" width="7.766" height="7.055" transform="translate(418.35 15.155)" fill="#fff"/>
      <path id="Path_117" data-name="Path 117" d="M52.974,30.7a29.125,29.125,0,0,0-21.462-8.954q-15.636,0-23.761,12.936V23.161H0V34.707H15.9a22.142,22.142,0,0,1,15.021-5.426,22.142,22.142,0,0,1,15.021,5.426H56.368A31.378,31.378,0,0,0,52.974,30.7m6.067,8.553h-8.98A22.591,22.591,0,0,1,54.1,52.561,22.644,22.644,0,0,1,47.388,69.1a22.32,22.32,0,0,1-16.464,6.762A22.32,22.32,0,0,1,14.46,69.1,22.643,22.643,0,0,1,7.751,52.561a22.591,22.591,0,0,1,4.036-13.31H0v66.257H7.751V70.441q8.1,12.949,23.761,12.936A29.1,29.1,0,0,0,52.974,74.45a29.815,29.815,0,0,0,8.874-21.89,31.174,31.174,0,0,0-2.806-13.31" transform="translate(0 -12.497)" fill="#d83030"/>
      <path id="Path_118" data-name="Path 118" d="M183.632,24.006a28.374,28.374,0,0,0-20.9,8.686,33.342,33.342,0,0,0-2.886,3.314h10.477a22.948,22.948,0,0,1,27.77,0h8.259q-7.858-11.987-22.718-12M202.474,40.55a21.879,21.879,0,0,1,4.277,13.444,21.955,21.955,0,0,1-6.522,16.09,22.747,22.747,0,0,1-32.046,0,21.978,21.978,0,0,1-6.548-16.09,21.9,21.9,0,0,1,4.3-13.444h-8.847A29.817,29.817,0,0,0,154.1,53.994a28.989,28.989,0,0,0,8.633,21.3,28.4,28.4,0,0,0,20.9,8.713q15.234,0,23.119-12.588v11.2h7.564V40.55Z" transform="translate(-88.563 -13.797)" fill="#d83030"/>
      <path id="Path_119" data-name="Path 119" d="M329.573,63.344a6.75,6.75,0,0,1-5.212-1.951c-1.149-1.256-1.737-3.368-1.737-6.335v-28.3h-7.163v28.3q0,9.422,5.693,12.8c3.795,2.245,9.514,2.779,17.105,1.63V63.183c-3.475.161-6.361.214-8.687.161m-6.949-48.136V0l-7.163,2.165V15.208H304.048v6.949h11.413v.054h7.163v-.054H338.26V15.208Z" transform="translate(-174.741)" fill="#d83030"/>
      <path id="Path_120" data-name="Path 120" d="M410.169,15.207V0l-7.163,2.165V15.207H391.593v6.949h11.413v.054h7.163v-.054H425.8V15.207Zm6.949,48.136a6.748,6.748,0,0,1-5.212-1.951c-1.149-1.256-1.737-3.368-1.737-6.334v-28.3h-7.163v28.3q0,9.422,5.693,12.8c3.8,2.245,9.515,2.78,17.106,1.63V63.183c-3.475.16-6.361.213-8.686.16" transform="translate(-225.055 0.001)" fill="#d83030"/>
      <path id="Path_121" data-name="Path 121" d="M532.131,32.861q-7.817-8.98-20.526-8.98-13.15,0-21.489,8.58a32.333,32.333,0,0,0-2.914,3.475h10.21A21.757,21.757,0,0,1,511.6,31.2a20.2,20.2,0,0,1,13.257,4.731h9.649a31.634,31.634,0,0,0-2.379-3.074m7.858,21.222a31.836,31.836,0,0,0-2.886-13.6H528.9a24.083,24.083,0,0,1,3.314,9.809H489.555a22.476,22.476,0,0,1,3.635-9.809h-8.633a31.457,31.457,0,0,0-2.78,13.364q0,13.03,8.446,21.515,8.46,8.46,21.97,8.446a30.471,30.471,0,0,0,14.86-3.555,26.969,26.969,0,0,0,10.29-9.595l-6.628-3.876a18.238,18.238,0,0,1-7.136,7.029A22.57,22.57,0,0,1,512.3,76.481q-9.141,0-15.368-5.078a20.409,20.409,0,0,1-7.377-13.791h50.194q.24-2.286.24-3.528" transform="translate(-276.885 -13.725)" fill="#d83030"/>
      <path id="Path_122" data-name="Path 122" d="M627.139,40.226V83.685h7.831V50.7A23.93,23.93,0,0,1,637,40.226Zm7.831-5.987V24.377h-7.831V35.682h13.283a19.407,19.407,0,0,1,13.284-4.65V23.441c-8.847,0-15.1,3.582-18.736,10.8" transform="translate(-360.427 -13.472)" fill="#d83030"/>
      <path id="Path_123" data-name="Path 123" d="M697.275,40.3V83.7h7.751V52.94c0-5.131.828-9.355,2.539-12.642Zm44.341-10.21c-4.089-4.357-9.729-6.522-16.838-6.522q-13.19,0-19.751,10.584V24.983h-7.751V35.754H711.04a18.525,18.525,0,0,1,13.016-4.677c5.105,0,9.034,1.47,11.814,4.357a1.407,1.407,0,0,1,.268.321h9.3a20.531,20.531,0,0,0-3.822-5.666m5.372,10.21h-8.125a21.313,21.313,0,0,1,1.176,7.35V83.7h7.751V47.648a31.765,31.765,0,0,0-.8-7.35" transform="translate(-400.735 -13.544)" fill="#d83030"/>
      <rect id="Rectangle_1072" data-name="Rectangle 1072" width="71.445" height="6.945" transform="translate(129.348 15.208)" fill="#d83030"/>
      <rect id="Rectangle_1073" data-name="Rectangle 1073" width="7.766" height="7.055" transform="translate(117.77 15.155)" fill="#d83030"/>
    </g>
  </g>
</svg>
