<svg id="Group_88" data-name="Group 88" xmlns="http://www.w3.org/2000/svg" xmlns:xlink="http://www.w3.org/1999/xlink" width="371.758" height="415.493" viewBox="0 0 371.758 415.493">
  <defs>
    <clipPath id="clip-path">
      <rect id="Rectangle_1082" data-name="Rectangle 1082" width="371.758" height="415.493" fill="none"/>
    </clipPath>
  </defs>
  <g id="Group_87" data-name="Group 87" clip-path="url(#clip-path)">
    <path id="Path_126" data-name="Path 126" d="M673.929,1052.623h0a152.2,152.2,0,0,0-12.7,47.413l140.387-29.843a152.271,152.271,0,0,0,12.7-47.413Z" transform="translate(-442.558 -684.542)" fill="#1c2438"/>
    <path id="Path_127" data-name="Path 127" d="M359.059,296.245a152.177,152.177,0,0,0,12.7-47.413L262.4,272.09V227.379l96.655-20.54a152.176,152.176,0,0,0,12.7-47.413L262.4,182.664V21.869a154.295,154.295,0,0,0-43.736,36.7v133.39l-43.736,9.3V0A154.24,154.24,0,0,0,131.19,36.7V210.553L33.332,231.347A152.277,152.277,0,0,0,20.626,278.76l110.564-23.5V311.57L12.7,336.749A152.179,152.179,0,0,0,0,384.163l124.027-26.357a39.4,39.4,0,0,0,24.416-16.284L171.189,307.8v-.007a21.734,21.734,0,0,0,3.737-12.226v-49.6l43.736-9.3v89.422l140.394-29.856Z" fill="#1c2438"/>
  </g>
</svg>
