<svg id="sign-out-alt" xmlns="http://www.w3.org/2000/svg" width="64.913" height="66.062" viewBox="0 0 64.913 66.062">
  <path id="Path_2" data-name="Path 2" d="M31.654,44.041a4.129,4.129,0,0,0-4.129,4.129v2.2A7.432,7.432,0,0,1,20.094,57.8h-4.4a7.432,7.432,0,0,1-7.432-7.432V15.69A7.432,7.432,0,0,1,15.69,8.258h4.4a7.432,7.432,0,0,1,7.432,7.432v2.2a4.129,4.129,0,0,0,8.258,0v-2.2A15.706,15.706,0,0,0,20.094,0h-4.4A15.706,15.706,0,0,0,0,15.69V50.372a15.706,15.706,0,0,0,15.69,15.69h4.4a15.706,15.706,0,0,0,15.69-15.69v-2.2A4.129,4.129,0,0,0,31.654,44.041Z" transform="translate(0 0)" fill="#1c4853"/>
  <path id="Path_3" data-name="Path 3" d="M52.461,18.332,39.838,5.709A4.129,4.129,0,1,0,34,11.55l9.389,9.389-33.76.077a4.129,4.129,0,1,0,0,8.258h0L43.535,29.2l-9.543,9.543A4.129,4.129,0,0,0,39.83,44.58L52.453,31.957A9.648,9.648,0,0,0,52.461,18.332Z" transform="translate(9.639 7.886)" fill="#1c4853"/>
</svg>
