<svg xmlns="http://www.w3.org/2000/svg" width="72" height="72" viewBox="0 0 72 72">
  <path id="subscription" d="M47.994,12.672A4.607,4.607,0,0,0,43.431,9H40.614a1.542,1.542,0,0,0-1.542,1.542V22.458A1.542,1.542,0,0,0,40.614,24h2.838a4.58,4.58,0,0,0,4.59-3.99,3.838,3.838,0,0,0-1.251-3.438,4.378,4.378,0,0,0,1.2-3.9ZM43.572,21h-1.5V18h1.5a1.5,1.5,0,1,1,0,3Zm0-6h-1.5V12h1.5a1.5,1.5,0,1,1,0,3Zm9.378-1.875a.759.759,0,0,0,.324.75c.039,0,1.527.654,3.165,1.26,3.039,1.122,3.8,3.321,3.5,5.007A4.973,4.973,0,0,1,54.867,24a7.351,7.351,0,0,1-3.726-1,1.554,1.554,0,0,1,1.566-2.685,4.268,4.268,0,0,0,2.16.579,1.944,1.944,0,0,0,2.013-1.3c.153-.858-1.122-1.4-1.518-1.545-1.869-.69-3.555-1.443-3.555-1.443a3.91,3.91,0,0,1-1.932-3.927,4.258,4.258,0,0,1,3.081-3.432,5.869,5.869,0,0,1,4.47.513,1.485,1.485,0,0,1-1.293,2.67,3.362,3.362,0,0,0-2.283-.21,1.127,1.127,0,0,0-.9.9ZM30,10.5v8.934a1.549,1.549,0,0,0,1.35,1.56A1.5,1.5,0,0,0,33,19.5v-9a1.5,1.5,0,0,1,3,0v9a4.5,4.5,0,0,1-4.725,4.494A4.588,4.588,0,0,1,27,19.368V10.5a1.5,1.5,0,1,1,3,0Zm-9.12,9.1c.153-.858-1.122-1.4-1.518-1.545-1.869-.69-3.555-1.443-3.555-1.443a3.91,3.91,0,0,1-1.932-3.927,4.258,4.258,0,0,1,3.081-3.432,5.869,5.869,0,0,1,4.47.513,1.485,1.485,0,0,1-1.293,2.67,3.362,3.362,0,0,0-2.283-.21,1.127,1.127,0,0,0-.9.9.759.759,0,0,0,.324.75c.039,0,1.527.654,3.165,1.26,3.039,1.122,3.8,3.321,3.5,5.007a4.973,4.973,0,0,1-5.073,3.858,7.351,7.351,0,0,1-3.726-1A1.554,1.554,0,0,1,16.7,20.31a4.268,4.268,0,0,0,2.16.579,1.944,1.944,0,0,0,2.013-1.3ZM72,13.5v6A13.516,13.516,0,0,1,58.5,33h-12a1.5,1.5,0,0,1,0-3h12A10.512,10.512,0,0,0,69,19.5v-6A10.512,10.512,0,0,0,58.5,3h-45A10.512,10.512,0,0,0,3,13.5v6A10.512,10.512,0,0,0,13.5,30h3a1.5,1.5,0,0,1,0,3h-3A13.516,13.516,0,0,1,0,19.5v-6A13.516,13.516,0,0,1,13.5,0h45A13.516,13.516,0,0,1,72,13.5Zm-9,57a1.5,1.5,0,1,1-3,0,11.51,11.51,0,0,0-7.788-10.881L36.969,53.9A1.5,1.5,0,0,1,36,52.5V37.821a4.716,4.716,0,0,0-3.735-4.758A4.505,4.505,0,0,0,26.994,37.5V59.772a3.257,3.257,0,0,1-5.283,2.55s-5.145-4.1-5.181-4.137A4.5,4.5,0,0,0,10.4,64.779l4.9,4.653a1.49,1.49,0,0,1-2.049,2.163l-4.92-4.644A7.5,7.5,0,0,1,18.552,55.974l5.028,4.005.414-.2V37.506a7.491,7.491,0,0,1,2.643-5.715A7.588,7.588,0,0,1,32.742,30.1a7.741,7.741,0,0,1,6.252,7.719V51.462l14.268,5.349A14.452,14.452,0,0,1,62.994,70.5Z" fill="#1c4853"/>
</svg>
