<svg xmlns="http://www.w3.org/2000/svg" width="74" height="74" viewBox="0 0 74 74">
  <path id="user-pen" d="M27.75,37A18.5,18.5,0,1,0,9.25,18.5,18.519,18.519,0,0,0,27.75,37Zm0-33.917A15.417,15.417,0,1,1,12.333,18.5,15.434,15.434,0,0,1,27.75,3.083ZM39.365,49.148A24.678,24.678,0,0,0,3.083,70.917v1.542a1.542,1.542,0,1,1-3.083,0V70.917A27.758,27.758,0,0,1,40.82,46.432a1.542,1.542,0,0,1-1.455,2.72ZM71.74,36.174a7.894,7.894,0,0,0-10.9,0L37.077,59.937a10.721,10.721,0,0,0-3.16,7.631v4.89A1.542,1.542,0,0,0,35.458,74h4.89a10.721,10.721,0,0,0,7.631-3.16L71.743,47.076a7.712,7.712,0,0,0,0-10.9Zm-2.18,8.72L45.8,68.657a7.659,7.659,0,0,1-5.451,2.257H37V67.565a7.664,7.664,0,0,1,2.257-5.451L63.017,38.35a4.739,4.739,0,0,1,6.54,0,4.63,4.63,0,0,1,0,6.543Z" fill="#1c4853"/>
</svg>
