<svg xmlns="http://www.w3.org/2000/svg" xmlns:xlink="http://www.w3.org/1999/xlink" width="614" height="614" viewBox="0 0 614 614">
  <defs>
    <clipPath id="clip-path">
      <rect id="Rectangle_1087" data-name="Rectangle 1087" width="273.415" height="182.121" fill="none"/>
    </clipPath>
  </defs>
  <g id="Group_88" data-name="Group 88" transform="translate(12953 17558)">
    <g id="Rectangle_1086" data-name="Rectangle 1086" transform="translate(-12953 -17558)" fill="#1c2437" stroke="#707070" stroke-width="1">
      <rect width="614" height="614" stroke="none"/>
      <rect x="0.5" y="0.5" width="613" height="613" fill="none"/>
    </g>
    <g id="Group_87" data-name="Group 87" transform="translate(-12783 -17342)">
      <g id="Group_86" data-name="Group 86" clip-path="url(#clip-path)">
        <path id="Path_131" data-name="Path 131" d="M115.178,19.467Q95.914.03,68.514,0q-34,0-51.661,28.125V3.08H0v25.1H34.577c9.123-7.9,19.99-11.8,32.658-11.8s23.535,3.894,32.658,11.8h22.664a68.238,68.238,0,0,0-7.38-8.716m13.191,18.6H108.843A49.114,49.114,0,0,1,117.618,67q0,21.268-14.585,35.97c-9.705,9.764-21.618,14.7-35.8,14.7s-26.092-4.938-35.8-14.7Q16.883,88.242,16.853,67a49.114,49.114,0,0,1,8.775-28.94H0V182.121H16.853V105.88Q34.461,134.034,68.514,134q27.371,0,46.664-19.409C128.078,101.638,134.47,85.773,134.47,67a67.779,67.779,0,0,0-6.1-28.94" transform="translate(0 0)" fill="#d83030"/>
        <path id="Path_132" data-name="Path 132" d="M176.339,1.646c-17.782,0-32.891,6.276-45.444,18.887a72.358,72.358,0,0,0-6.275,7.205H147.4c8.485-6.8,18.6-10.169,30.16-10.169q17.434,0,30.218,10.169h17.956Q208.648,1.675,176.339,1.646m40.968,35.971c6.218,8.368,9.3,18.072,9.3,29.23q0,20.659-14.18,34.984-14.209,14.382-34.867,14.352-20.658,0-34.809-14.352-14.209-14.3-14.237-34.984a47.615,47.615,0,0,1,9.356-29.23H118.634a64.83,64.83,0,0,0-6.509,29.23c0,18.306,6.218,33.7,18.77,46.316s27.662,18.944,45.444,18.944q33.122,0,50.267-27.371v24.349h16.445V37.617Z" transform="translate(30.364 0.446)" fill="#d83030"/>
      </g>
    </g>
  </g>
</svg>
