<svg xmlns="http://www.w3.org/2000/svg" width="88.888" height="101.586" viewBox="0 0 88.888 101.586">
  <path id="file" d="M56.285,0a18.491,18.491,0,0,1,14.92,7.3L86.761,26.666a20.306,20.306,0,0,1,4.127,11.746V82.539A19.1,19.1,0,0,1,71.84,101.586H21.047A19.1,19.1,0,0,1,2,82.539V19.047A19.1,19.1,0,0,1,21.047,0Zm9.841,35.873A15.611,15.611,0,0,0,45.174,34.6a3.414,3.414,0,0,0-.635,4.444,3.414,3.414,0,0,0,4.444.635A9.48,9.48,0,0,1,61.364,53.968L50.253,65.078l-5.4,5.4-.317.317A9.439,9.439,0,0,1,31.206,57.46l.317-.317,7.3-7.3.317-.317a2.968,2.968,0,0,1,4.127.317,3.069,3.069,0,0,1,0,4.444l-7.3,7.3-.317.317a2.968,2.968,0,0,0,.317,4.127,3.069,3.069,0,0,0,4.444,0l7.3-7.3.317-.317A9.719,9.719,0,0,0,47.714,45.4a9.2,9.2,0,0,0-13.333,0l-2.857,2.857-.317.317-1.9,1.9L27.079,52.7A15.938,15.938,0,0,0,49.618,75.237l7.3-7.3.317-.317,9.206-9.206.635-.635a16.514,16.514,0,0,0-.952-21.9Z" transform="translate(-2)" fill="#1c2437" fill-rule="evenodd"/>
</svg>
